<svg width="28" height="28" viewBox="0 0 28 28" fill="none" xmlns="http://www.w3.org/2000/svg">
<path d="M14.2852 11.4531V16.8747H21.9735C21.6359 18.6182 20.6228 20.0946 19.1033 21.0872L23.7397 24.6125C26.4411 22.1691 27.9995 18.5801 27.9995 14.3168C27.9995 13.3241 27.9086 12.3695 27.7398 11.4533L14.2852 11.4531Z" fill="#4285F4"/>
<path d="M6.27931 16.6641L5.23363 17.4485L1.53223 20.2737C3.8829 24.8425 8.70078 27.9988 14.2852 27.9988C18.1423 27.9988 21.3761 26.7516 23.7398 24.6135L19.1034 21.0882C17.8306 21.9282 16.2072 22.4373 14.2852 22.4373C10.5709 22.4373 7.41512 19.9811 6.28515 16.6721L6.27931 16.6641Z" fill="#34A853"/>
<path d="M1.53237 7.72266C0.55839 9.60612 0 11.7315 0 13.9968C0 16.2621 0.55839 18.3875 1.53237 20.2709C1.53237 20.2836 6.28576 16.6566 6.28576 16.6566C6.00004 15.8166 5.83116 14.9258 5.83116 13.9966C5.83116 13.0675 6.00004 12.1767 6.28576 11.3367L1.53237 7.72266Z" fill="#FBBC05"/>
<path d="M14.2855 5.57425C16.3895 5.57425 18.2596 6.28692 19.7531 7.66141L23.844 3.65258C21.3635 1.38729 18.1428 0 14.2855 0C8.70107 0 3.8829 3.14347 1.53223 7.72506L6.28547 11.3394C7.41528 8.03047 10.5712 5.57425 14.2855 5.57425Z" fill="#EA4335"/>
</svg>
